<?xml version="1.0" standalone="no"?>
<!DOCTYPE svg PUBLIC "-//W3C//DTD SVG 20010904//EN"
 "http://www.w3.org/TR/2001/REC-SVG-20010904/DTD/svg10.dtd">
<svg version="1.0" xmlns="http://www.w3.org/2000/svg"
 width="512.000000pt" height="512.000000pt" viewBox="0 0 512.000000 512.000000"
 preserveAspectRatio="xMidYMid meet">

<g transform="translate(0.000000,512.000000) scale(0.100000,-0.100000)"
fill="#000000" stroke="none">
<path d="M1643 4610 c-96 -20 -178 -85 -222 -179 -24 -53 -26 -67 -29 -233
l-4 -178 -201 0 c-234 0 -253 -6 -288 -85 -19 -43 -20 -65 -17 -417 3 -352 4
-375 23 -407 11 -19 33 -43 48 -55 28 -21 38 -21 425 -21 l397 0 33 23 c68 49
67 45 67 472 0 383 0 385 -23 421 -36 59 -70 69 -226 69 l-136 0 0 164 c0 160
1 165 28 217 20 39 41 62 76 83 l48 30 937 0 936 0 45 -24 c24 -14 58 -44 75
-68 l30 -44 3 -179 3 -179 -161 0 c-179 0 -201 -6 -242 -62 l-23 -33 0 -397
c0 -385 1 -397 21 -424 48 -65 60 -69 240 -72 l164 -3 0 -260 0 -259 -214 0
c-245 0 -303 -8 -367 -52 -127 -86 -162 -251 -80 -381 l29 -45 -23 -10 c-40
-18 -105 -83 -127 -126 -11 -22 -23 -68 -26 -102 -8 -110 41 -205 134 -260 41
-24 44 -28 30 -43 -8 -9 -25 -39 -37 -66 -43 -97 -20 -232 51 -300 l30 -28
-40 -43 c-54 -59 -72 -105 -71 -191 l0 -73 -128 0 -127 0 -22 123 c-65 353
-217 631 -434 792 l-57 42 124 5 c114 5 129 7 189 37 251 124 237 483 -24 582
-57 21 -130 25 -148 7 -17 -17 -15 -53 3 -68 9 -7 39 -17 67 -21 151 -24 231
-197 152 -326 -18 -29 -49 -59 -78 -78 l-49 -30 -379 -3 -378 -3 -16 -24 c-12
-18 -13 -28 -4 -44 14 -27 29 -30 185 -34 115 -3 138 -7 195 -31 354 -151 562
-552 586 -1131 7 -147 17 -185 54 -185 10 0 26 7 35 16 13 14 16 37 13 145
l-3 129 153 0 c150 0 154 -1 188 -26 46 -36 99 -53 162 -54 l52 0 0 -84 c0
-67 4 -88 19 -107 16 -20 23 -22 47 -14 29 10 29 11 32 108 l3 97 153 0 c146
0 155 1 207 28 34 17 64 42 82 67 52 76 58 228 12 312 l-23 41 38 31 c62 50
80 99 80 224 0 117 -12 162 -56 208 l-24 26 21 19 c50 45 61 87 57 219 -3 121
-4 125 -35 169 l-33 46 33 46 c31 44 32 48 35 169 3 107 1 128 -17 162 -21 43
-77 97 -110 108 -21 6 -21 12 -21 276 l0 269 168 0 c154 0 171 2 212 23 81 41
80 37 80 475 0 414 0 410 -55 462 -26 25 -30 25 -216 28 l-189 3 0 163 c0 188
-10 236 -68 311 -27 36 -57 60 -106 85 l-69 35 -921 2 c-507 0 -940 -3 -963
-7z m115 -702 c9 -9 12 -108 12 -385 l0 -373 -26 -10 c-35 -14 -709 -13 -735
0 -18 10 -19 25 -19 383 0 277 3 376 12 385 17 17 739 17 756 0z m2360 0 c17
-17 17 -739 0 -756 -9 -9 -108 -12 -385 -12 l-373 0 -10 26 c-14 35 -13 709 0
735 10 18 25 19 383 19 277 0 376 -3 385 -12z m-355 -1521 c50 -32 62 -63 62
-157 0 -100 -16 -139 -69 -164 -29 -13 -74 -16 -292 -16 -241 0 -261 1 -301
21 -106 51 -131 187 -50 275 55 60 81 64 367 61 225 -2 259 -4 283 -20z m-7
-453 c53 -25 69 -64 69 -164 0 -94 -12 -125 -62 -157 -24 -16 -60 -18 -322
-21 -311 -3 -360 1 -414 40 -36 26 -66 90 -67 140 0 73 35 127 105 159 36 17
70 19 348 19 266 0 314 -2 343 -16z m3 -457 c52 -26 66 -61 66 -160 0 -103
-10 -128 -58 -157 -30 -18 -52 -20 -302 -20 -261 0 -271 1 -310 23 -99 56
-121 181 -48 268 47 56 62 58 358 58 195 1 277 -3 294 -12z m-80 -455 c58 -29
76 -63 76 -145 -1 -87 -21 -132 -70 -153 -49 -20 -481 -20 -528 0 -108 46
-135 192 -49 270 44 39 88 45 317 46 190 0 225 -2 254 -18z"/>
<path d="M2485 4010 c-111 -18 -197 -64 -277 -148 -116 -121 -138 -201 -138
-510 0 -325 -13 -312 308 -312 251 0 300 7 397 54 168 83 266 242 267 431 1
137 -38 238 -130 337 -106 113 -276 173 -427 148z m147 -101 c157 -34 276
-154 308 -312 33 -165 -58 -340 -218 -419 l-66 -33 -244 -3 -244 -4 4 244 c3
240 3 244 30 301 52 112 166 204 278 226 64 13 92 12 152 0z"/>
<path d="M1410 2770 c-19 -19 -20 -33 -20 -277 l0 -257 -39 -41 c-52 -53 -106
-144 -134 -225 -21 -64 -22 -73 -25 -799 -3 -678 -2 -735 14 -752 21 -23 47
-24 68 -3 14 14 16 92 16 713 0 458 4 718 11 757 33 179 176 335 358 388 40
12 98 16 217 16 144 0 164 2 185 19 20 16 22 23 14 47 l-11 29 -204 0 c-217
-1 -213 0 -352 -60 -17 -7 -18 7 -18 212 0 200 -2 221 -18 236 -24 22 -38 21
-62 -3z"/>
</g>
</svg>
